<?xml version="1.0" encoding="utf-8"?>
<svg id="master-artboard" viewBox="0 0 82.51004028320312 66.00485229492188" version="1.1" xmlns="http://www.w3.org/2000/svg" x="0px" y="0px" style="enable-background:new 0 0 850.4 1133.9;" width="82.51004028320312px" height="66.00485229492188px"><rect id="ee-background" x="0" y="0" width="82.51004028320312" height="66.00485229492188" style="fill: white; fill-opacity: 0; pointer-events: none;"/><g transform="matrix(0.8156765058186227, 0, 0, 0.8156765058186227, -1.1368683772161603e-13, 89.70297939014131)"><title>Asset 1</title><g id="Layer_2" data-name="Layer 2"><g id="Layer_1-2" data-name="Layer 1"><path id="_Path_" data-name="&lt;Path&gt;" class="cls-1" d="M39.53,31.29l.72-.2A137.93,137.93,0,0,0,55.9,25.36a57.83,57.83,0,0,0,14.4-8.2A31.27,31.27,0,0,0,80.4,2.89,12.81,12.81,0,0,0,81.31,0c-7,9.56-34.75,10.55-34.75,10.55l6.55-6A91.53,91.53,0,0,0,0,21.75,50,50,0,0,1,28.16,34.33c3.76-1.16,7.59-2,11.38-3" style="fill: rgb(249, 157, 30);" transform="matrix(1, 0, 0, 1, 3.389670658236696, -107.50098373264882)"/><path id="_Path_2" data-name="&lt;Path&gt;" class="cls-1" d="M83.06,30.35s-25.61-2-52.2,6.61a50.3,50.3,0,0,1,8.78,12.53C53.62,41.7,73,31.75,83.06,30.35" style="fill: rgb(249, 157, 30);" transform="matrix(1, 0, 0, 1, 3.389670658236696, -107.50098373264882)"/><path id="_Path_3" data-name="&lt;Path&gt;" class="cls-1" d="M41.39,53.48a49.9,49.9,0,0,1,3.17,13.25L68.93,41.66Z" style="fill: rgb(249, 157, 30);" transform="matrix(1, 0, 0, 1, 3.389670658236696, -107.50098373264882)"/><path id="_Compound_Path_" data-name="&lt;Compound Path&gt;" class="cls-1" d="M54.19,65.77V65.5a.56.56,0,0,0-.11-.3.29.29,0,0,0-.24-.14h0A.6.6,0,0,0,54,65a.44.44,0,0,0,.19-.4.49.49,0,0,0-.31-.5,1.37,1.37,0,0,0-.52-.07l-.68,0,0,1.87.36,0,0-.69h.26a.73.73,0,0,1,.34.05c.11.06.16.19.16.39v.15l.05.13h.36l0,0ZM53.11,64.3h.24a.85.85,0,0,1,.38.06.25.25,0,0,1,.11.24.26.26,0,0,1-.17.26.94.94,0,0,1-.3,0l-.25,0Z" style="fill: rgb(249, 157, 30);" transform="matrix(1, 0, 0, 1, 3.389670658236696, -107.50098373264882)"/><path id="_Compound_Path_2" data-name="&lt;Compound Path&gt;" class="cls-1" d="M54.64,63.77a1.72,1.72,0,0,0-2.42,0,1.65,1.65,0,0,0-.5,1.21,1.67,1.67,0,0,0,.5,1.21,1.71,1.71,0,0,0,2.42,0,1.72,1.72,0,0,0,0-2.42M53.43,66.4a1.36,1.36,0,0,1-1-.42,1.43,1.43,0,0,1,0-2,1.4,1.4,0,0,1,2,0,1.43,1.43,0,0,1,0,2,1.36,1.36,0,0,1-1,.42" style="fill: rgb(249, 157, 30);" transform="matrix(1, 0, 0, 1, 3.389670658236696, -107.50098373264882)"/></g></g></g></svg>