<?xml version="1.0" encoding="utf-8"?>
<svg id="master-artboard" viewBox="0 0 355.04766845703125 246.51165771484375" version="1.1" xmlns="http://www.w3.org/2000/svg" x="0px" y="0px" style="enable-background:new 0 0 850.4 1133.9;" width="355.04766845703125px" height="246.51165771484375px"><rect id="ee-background" x="0" y="0" width="355.04766845703125" height="246.51165771484375" style="fill: white; fill-opacity: 0; pointer-events: none;"/><g transform="matrix(1.0630000829696655, 0, 0, 1.0630000829696655, -21.229397234601493, 248.0500030517578)"><g transform="matrix(1.2875913381576538, 0, 0, 1.2875913381576538, -55.486251831054695, 28.208500651430597)">
	<g>
		
		
		
		
		
	</g>
	<g transform="matrix(0.9999999999999999, 0, 0, 0.9999999999999999, -66.25964345519043, -411.0551955090514)">
		<path fill="#A41E11" d="M334.774,339.535c-9.078,4.732-56.106,24.068-66.118,29.287c-10.012,5.221-15.574,5.17-23.483,1.389&#10;&#9;&#9;&#9;s-57.955-23.996-66.97-28.305c-4.506-2.154-6.875-3.971-6.875-5.688c0-1.713,0-17.195,0-17.195s65.153-14.184,75.672-17.957&#10;&#9;&#9;&#9;c10.518-3.774,14.167-3.91,23.118-0.631c8.952,3.279,62.474,12.936,71.321,16.176c0,0-0.004,15.357-0.004,16.951&#10;&#9;&#9;&#9;C341.436,335.262,339.395,337.127,334.774,339.535z"/>
		<path fill="#D82C20" d="M334.774,322.336c-9.078,4.73-56.106,24.068-66.118,29.287c-10.012,5.221-15.574,5.17-23.483,1.389&#10;&#9;&#9;&#9;c-7.91-3.779-57.955-23.998-66.97-28.305c-9.015-4.309-9.204-7.275-0.348-10.742c8.855-3.469,58.626-22.996,69.146-26.77&#10;&#9;&#9;&#9;c10.518-3.772,14.167-3.91,23.118-0.63c8.952,3.279,55.699,21.886,64.545,25.126C343.512,314.934,343.852,317.604,334.774,322.336&#10;&#9;&#9;&#9;z"/>
		<path fill="#A41E11" d="M334.774,311.496c-9.078,4.732-56.106,24.068-66.118,29.289c-10.012,5.219-15.574,5.168-23.483,1.387&#10;&#9;&#9;&#9;c-7.91-3.779-57.955-23.996-66.97-28.305c-4.506-2.154-6.875-3.969-6.875-5.686c0-1.713,0-17.197,0-17.197&#10;&#9;&#9;&#9;s65.153-14.183,75.672-17.957c10.518-3.773,14.167-3.91,23.118-0.631c8.952,3.279,62.474,12.934,71.321,16.175&#10;&#9;&#9;&#9;c0,0-0.004,15.357-0.004,16.953C341.436,307.223,339.395,309.088,334.774,311.496z"/>
		<path fill="#D82C20" d="M334.774,294.297c-9.078,4.732-56.106,24.068-66.118,29.289c-10.012,5.219-15.574,5.168-23.483,1.387&#10;&#9;&#9;&#9;c-7.91-3.779-57.955-23.997-66.97-28.305c-9.015-4.308-9.204-7.274-0.348-10.743c8.855-3.467,58.626-22.995,69.146-26.768&#10;&#9;&#9;&#9;c10.518-3.773,14.167-3.91,23.118-0.631c8.952,3.279,55.699,21.885,64.545,25.126&#10;&#9;&#9;&#9;C343.512,286.894,343.852,289.565,334.774,294.297z"/>
		<path fill="#A41E11" d="M334.774,282.419c-9.078,4.732-56.106,24.069-66.118,29.29c-10.012,5.219-15.574,5.168-23.483,1.387&#10;&#9;&#9;&#9;c-7.91-3.779-57.955-23.997-66.97-28.305c-4.506-2.154-6.875-3.97-6.875-5.686c0-1.714,0-17.197,0-17.197&#10;&#9;&#9;&#9;s65.153-14.183,75.672-17.956c10.518-3.774,14.167-3.91,23.118-0.631c8.952,3.279,62.474,12.934,71.321,16.175&#10;&#9;&#9;&#9;c0,0-0.004,15.357-0.004,16.952C341.436,278.146,339.395,280.011,334.774,282.419z"/>
		<path fill="#D82C20" d="M334.774,265.22c-9.078,4.732-56.106,24.069-66.118,29.289c-10.012,5.219-15.574,5.168-23.483,1.388&#10;&#9;&#9;&#9;s-57.955-23.997-66.97-28.305c-9.015-4.308-9.204-7.275-0.348-10.743c8.855-3.468,58.626-22.994,69.146-26.768&#10;&#9;&#9;&#9;c10.518-3.774,14.167-3.91,23.118-0.63c8.952,3.279,55.699,21.885,64.545,25.126C343.512,257.817,343.852,260.489,334.774,265.22z&#10;&#9;&#9;&#9;"/>
		<path d="M 259.05499267578125 240.77999877929688 L 270.2720031738281 237.11099243164062 L 267.2359924316406 244.37899780273438 L 278.6669921875 248.65699768066406 L 263.9330139160156 250.18600463867188 L 260.6310119628906 258.1300048828125 L 255.29600524902344 249.2689971923828 L 238.27699279785156 247.74000549316406 L 250.97799682617188 243.15699768066406 L 247.16799926757812 236.1280059814453 Z" fill="#FFFFFF"/>
		<path d="M 259.75299072265625 287.1809997558594 L 232.23599243164062 275.77099609375 L 271.656005859375 269.7200012207031 Z" fill="#FFFFFF"/>
		<path d="M 242.681 261.240997 A 21.069 8.167 0 0 1 221.612 269.407997 A 21.069 8.167 0 0 1 200.542999 261.240997 A 21.069 8.167 0 0 1 221.612 253.073997 A 21.069 8.167 0 0 1 242.681 261.240997 Z" fill="#FFFFFF"/>
	</g>
	<path d="M 296.093994140625 250.8260040283203 L 319.4209899902344 260.0530090332031 L 296.10699462890625 269.2569885253906 Z" fill="#7A0C00" transform="matrix(1, 0, 0, 1, -62.61257288067391, -409.0101013183594)"/>
	<path d="M 296.093994140625 250.8260040283203 L 296.10699462890625 269.2569885253906 L 293.5820007324219 270.25299072265625 L 270.281005859375 261.0360107421875 Z" fill="#AD2115" transform="matrix(1, 0, 0, 1, -60.179084637593235, -409.6305355184383)"/>
</g></g></svg>